C:\Users\r0593348\3dpredictsim\Results\batch_windlass\Pog_s1_tmt_bCst_d00_k1500_WL20_ig24_pas_GRF.mot
nRows=27
nColumns=19

name C:\Users\r0593348\3dpredictsim\Results\batch_windlass\Pog_s1_tmt_bCst_d00_k1500_WL20_ig24_pas_GRF.mot
datacolumns 19
datarows 27
range 0.0000000000 0.2749660557
endheader
time 	ground_force_vx	ground_force_vy	ground_force_vz	ground_force_px	ground_force_py	ground_force_pz	1_ground_force_vx	1_ground_force_vy	1_ground_force_vz	1_ground_force_px	1_ground_force_py	1_ground_force_pz	ground_torque_x	ground_torque_y	ground_torque_z	1_ground_torque_x	1_ground_torque_y	1_ground_torque_z
        0.0000000000	      -40.1933949074	       30.3568104990	       10.6400125776	        0.1341849105	        0.0000000000	        0.0529385506	       97.7180752870	      457.8835056948	        5.1881369403	       -0.3293562936	        0.0000000000	       -0.0335934667	        0.0000000000	        0.0000000000	        0.0000000000	        0.0000000000	        0.0000000000	        0.0000000000	
        0.0105756175	      -74.7954224299	       62.9440284866	       22.5160799277	        0.1459837669	        0.0000000000	        0.0506023651	       77.3170791827	      362.8133468566	        3.2024709841	       -0.3239876812	        0.0000000000	       -0.0310930121	        0.0000000000	        0.0000000000	        0.0000000000	        0.0000000000	        0.0000000000	        0.0000000000	
        0.0211512351	     -161.2917628043	      168.1861368161	       59.1946666875	        0.1590317467	        0.0000000000	        0.0501533989	       39.4388681333	      250.9845124471	       -7.1623018436	       -0.3144439276	        0.0000000000	       -0.0260590806	        0.0000000000	        0.0000000000	        0.0000000000	        0.0000000000	        0.0000000000	        0.0000000000	
        0.0317268526	      -78.8901280687	      398.5648109869	       24.7907832748	        0.1720160627	        0.0000000000	        0.0491358451	       14.8184407214	      160.2763748808	      -14.3392805151	       -0.2997191127	        0.0000000000	       -0.0172135958	        0.0000000000	        0.0000000000	        0.0000000000	        0.0000000000	        0.0000000000	        0.0000000000	
        0.0423024701	      -97.9801088354	      705.4805738204	       -8.0147107400	        0.1830681843	        0.0000000000	        0.0478449688	        1.2206597545	      128.9786300878	      -14.9176111665	       -0.3004005394	        0.0000000000	       -0.0174495872	        0.0000000000	        0.0000000000	        0.0000000000	        0.0000000000	        0.0000000000	        0.0000000000	
        0.0528780876	     -125.9241100853	      940.0267903404	      -15.3308643302	        0.1914899087	        0.0000000000	        0.0463353528	       -6.5533924966	       87.9417224710	      -12.9090753551	       -0.3004361606	        0.0000000000	       -0.0174103792	        0.0000000000	        0.0000000000	        0.0000000000	        0.0000000000	        0.0000000000	        0.0000000000	
        0.0634537052	     -136.7459326045	      995.4851437317	      -15.6413998674	        0.1959631775	        0.0000000000	        0.0453568773	      -15.5557674211	       38.7118704515	       -7.6057758627	       -0.3017004430	        0.0000000000	       -0.0173122729	        0.0000000000	        0.0000000000	        0.0000000000	        0.0000000000	        0.0000000000	        0.0000000000	
        0.0740293227	     -124.5118355654	      957.7739352680	      -15.2142214637	        0.1980364981	        0.0000000000	        0.0447228989	        0.1203942501	       -0.1171181655	        0.0054222118	        0.0000000000	        0.0000000000	        0.0000000000	        0.0000000000	        0.0000000000	        0.0000000000	        0.0000000000	        0.0000000000	        0.0000000000	
        0.0846049402	     -107.3623482263	      891.7044934589	      -15.5322419813	        0.2001657156	        0.0000000000	        0.0442305788	        0.0001676179	       -0.0001342467	       -0.0000037075	        0.0000000000	        0.0000000000	        0.0000000000	        0.0000000000	        0.0000000000	        0.0000000000	        0.0000000000	        0.0000000000	        0.0000000000	
        0.0951805577	      -91.7579859933	      826.1421214071	      -16.1390362261	        0.2024254669	        0.0000000000	        0.0438616444	        0.0000567486	       -0.0000401444	       -0.0000022185	        0.0000000000	        0.0000000000	        0.0000000000	        0.0000000000	        0.0000000000	        0.0000000000	        0.0000000000	        0.0000000000	        0.0000000000	
        0.1057561753	      -78.0675456444	      770.7681991636	      -17.1518290547	        0.2047920640	        0.0000000000	        0.0436038421	        0.0003893106	       -0.0002517344	       -0.0000187923	        0.0000000000	        0.0000000000	        0.0000000000	        0.0000000000	        0.0000000000	        0.0000000000	        0.0000000000	        0.0000000000	        0.0000000000	
        0.1163317928	      -65.8071756967	      725.7796825075	      -18.1890758458	        0.2073491884	        0.0000000000	        0.0434366672	        0.0086158219	       -0.0051826088	       -0.0004831545	        0.0000000000	        0.0000000000	        0.0000000000	        0.0000000000	        0.0000000000	        0.0000000000	        0.0000000000	        0.0000000000	        0.0000000000	
        0.1269074103	      -54.5499251233	      689.5995015483	      -19.7117963012	        0.2103948569	        0.0000000000	        0.0433189147	       -0.0463905451	        0.0262043938	        0.0029628215	        0.0000000000	        0.0000000000	        0.0000000000	        0.0000000000	        0.0000000000	        0.0000000000	        0.0000000000	        0.0000000000	        0.0000000000	
        0.1374830278	      -45.2060753483	      661.7582777627	      -21.5742449616	        0.2146557953	        0.0000000000	        0.0431649539	       -0.0437946785	        0.0233789577	        0.0031609795	        0.0000000000	        0.0000000000	        0.0000000000	        0.0000000000	        0.0000000000	        0.0000000000	        0.0000000000	        0.0000000000	        0.0000000000	
        0.1480586454	      -38.6421576756	      640.6420178001	      -23.1895529399	        0.2197454167	        0.0000000000	        0.0429684773	       -0.0278867295	        0.0141389600	        0.0022589148	        0.0000000000	        0.0000000000	        0.0000000000	        0.0000000000	        0.0000000000	        0.0000000000	        0.0000000000	        0.0000000000	        0.0000000000	
        0.1586342629	      -33.5307253346	      624.4985476736	      -24.3278672840	        0.2252572425	        0.0000000000	        0.0427457254	       -0.0202065396	        0.0097814637	        0.0018102417	        0.0000000000	        0.0000000000	        0.0000000000	        0.0000000000	        0.0000000000	        0.0000000000	        0.0000000000	        0.0000000000	        0.0000000000	
        0.1692098804	      -29.5278963543	      612.2970866333	      -24.9201749302	        0.2310018744	        0.0000000000	        0.0424984930	       -0.0183292645	        0.0085186440	        0.0017815371	        0.0000000000	        0.0000000000	        0.0000000000	        0.0000000000	        0.0000000000	        0.0000000000	        0.0000000000	        0.0000000000	        0.0000000000	
        0.1797854979	      -26.4363471384	      602.9696565097	      -24.6079781049	        0.2367153607	        0.0000000000	        0.0422470555	       -0.0210451557	        0.0094409954	        0.0021703137	        0.0000000000	        0.0000000000	        0.0000000000	        0.0000000000	        0.0000000000	        0.0000000000	        0.0000000000	        0.0000000000	        0.0000000000	
        0.1903611155	      -23.7375883149	      595.7876883508	      -23.6242930650	        0.2422723244	        0.0000000000	        0.0419971467	       -0.0296199150	        0.0128866801	        0.0031692183	        0.0000000000	        0.0000000000	        0.0000000000	        0.0000000000	        0.0000000000	        0.0000000000	        0.0000000000	        0.0000000000	        0.0000000000	
        0.2009367330	      -21.6151758179	      590.9380108726	      -22.5178816094	        0.2477803556	        0.0000000000	        0.0417260838	       -0.0484525673	        0.0205270934	        0.0052814460	        0.0000000000	        0.0000000000	        0.0000000000	        0.0000000000	        0.0000000000	        0.0000000000	        0.0000000000	        0.0000000000	        0.0000000000	
        0.2115123505	      -20.0986162259	      586.8129523314	      -21.2666679226	        0.2530368932	        0.0000000000	        0.0414541889	       -0.0864166298	        0.0357722388	        0.0094710752	        0.0000000000	        0.0000000000	        0.0000000000	        0.0000000000	        0.0000000000	        0.0000000000	        0.0000000000	        0.0000000000	        0.0000000000	
        0.2220879681	      -18.3584095909	      582.4795848198	      -20.0794262736	        0.2580449471	        0.0000000000	        0.0411856729	       -0.1575851962	        0.0639285919	        0.0171951214	        0.0000000000	        0.0000000000	        0.0000000000	        0.0000000000	        0.0000000000	        0.0000000000	        0.0000000000	        0.0000000000	        0.0000000000	
        0.2326635856	      -16.1434173736	      577.7962269437	      -19.0864646813	        0.2629052209	        0.0000000000	        0.0409095771	       -0.2778250937	        0.1107684714	        0.0299500063	        0.0000000000	        0.0000000000	        0.0000000000	        0.0000000000	        0.0000000000	        0.0000000000	        0.0000000000	        0.0000000000	        0.0000000000	
        0.2432392031	      -13.7436471484	      572.7670936223	      -18.3818801982	        0.2676758770	        0.0000000000	        0.0406166588	       -0.4519608665	        0.1776155832	        0.0478567178	        0.0000000000	        0.0000000000	        0.0000000000	        0.0000000000	        0.0000000000	        0.0000000000	        0.0000000000	        0.0000000000	        0.0000000000	
        0.2538148206	      -11.1633630146	      567.2029956419	      -17.8545214181	        0.2723893996	        0.0000000000	        0.0403048191	       -0.6627006706	        0.2574695088	        0.0686841341	        0.0000000000	        0.0000000000	        0.0000000000	        0.0000000000	        0.0000000000	        0.0000000000	        0.0000000000	        0.0000000000	        0.0000000000	
        0.2643904382	       -8.3174653143	      561.0653025625	      -17.2930575415	        0.2770556669	        0.0000000000	        0.0399738457	       -0.8734649056	        0.3364133010	        0.0880673562	        0.0000000000	        0.0000000000	        0.0000000000	        0.0000000000	        0.0000000000	        0.0000000000	        0.0000000000	        0.0000000000	        0.0000000000	
        0.2749660557	       -5.1423208158	      554.4974035469	      -16.2355539222	        0.2816672158	        0.0000000000	        0.0396281934	       -1.0470763947	        0.4006630663	        0.1016217034	        0.0000000000	        0.0000000000	        0.0000000000	        0.0000000000	        0.0000000000	        0.0000000000	        0.0000000000	        0.0000000000	        0.0000000000	
